Coordinates
version=1
nRows=29
nColumns=24
inDegrees=yes

Units are S.I. units (second, meters, Newtons, ...)
Angles are in degrees.

endheader
time	pelvis_tilt	pelvis_list	pelvis_rotation	pelvis_tx	pelvis_ty	pelvis_tz	hip_flexion_r	hip_adduction_r	hip_rotation_r	knee_angle_r	ankle_angle_r	subtalar_angle_r	mtp_angle_r	hip_flexion_l	hip_adduction_l	hip_rotation_l	knee_angle_l	ankle_angle_l	subtalar_angle_l	mtp_angle_l	lumbar_extension	lumbar_bending	lumbar_rotation
      4.08000000	    -15.75362984	      5.73695468	     -4.21366811	     -0.85731008	     -0.01714596	     -0.36518698	     34.28710778	     -4.56242389	     -2.26668321	    -62.58287548	     -2.73801468	    -14.11434988	     21.70424509	     23.49096527	      6.06458535	     -8.03547378	    -22.09693326	      7.72477186	     -3.43383309	      3.13924680	     19.67925707	     -6.65740292	     -7.51398362
      4.08500000	    -15.70724788	      5.45201102	     -3.91411204	     -0.85127627	     -0.01621592	     -0.36582028	     34.72142880	     -4.42178224	     -2.91504507	    -61.78811855	     -2.35447418	    -14.22494755	     20.49939661	     22.64834478	      6.01113645	     -7.64000087	    -21.45983046	      7.78006165	     -3.33021920	      3.15276937	     19.52444008	     -6.47814024	     -7.90951728
      4.09000000	    -15.82631106	      5.09428660	     -3.65142050	     -0.84532353	     -0.01552103	     -0.36641004	     35.30178518	     -4.15962503	     -3.48943424	    -60.86928125	     -1.96175239	    -14.28562571	     20.11927326	     22.03321336	      5.82679049	     -7.37602463	    -20.91610700	      7.88333400	     -3.20350558	      3.14833865	     19.53559744	     -6.19495345	     -8.33528909
      4.09500000	    -15.87366670	      4.76718160	     -3.36787690	     -0.83935635	     -0.01482945	     -0.36698706	     35.79060379	     -3.96879082	     -4.10743504	    -59.90113967	     -1.63884243	    -14.39788625	     19.66573342	     21.31831973	      5.68706893	     -7.03066396	    -20.32426035	      7.97442744	     -3.08072794	      3.12122878	     19.47309798	     -5.95971884	     -8.75111279
      4.10000000	    -15.87582772	      4.48296781	     -3.08740466	     -0.83341289	     -0.01420770	     -0.36755101	     36.22826441	     -3.83356338	     -4.70994972	    -58.90504794	     -1.31215089	    -14.47033712	     19.02743869	     20.54955796	      5.58779281	     -6.66785306	    -19.71192976	      8.07911049	     -2.94185554	      3.07936733	     19.36244584	     -5.76992780	     -9.16756581
      4.10500000	    -15.92709982	      4.18356514	     -2.83991324	     -0.82746261	     -0.01370212	     -0.36807964	     36.70037377	     -3.67011679	     -5.28408906	    -57.84230589	     -1.00822661	    -14.44197977	     18.48676465	     19.84054919	      5.44582229	     -6.36881485	    -19.11202275	      8.18323186	     -2.81143968	      3.02476107	     19.31091440	     -5.54403824	     -9.52492811
      4.11000000	    -15.99961854	      3.89366595	     -2.62920098	     -0.82153257	     -0.01329667	     -0.36857266	     37.18591277	     -3.50054433	     -5.81450441	    -56.72278414	     -0.72598054	    -14.35517279	     18.10333126	     19.16345519	      5.29137932	     -6.14406480	    -18.51932295	      8.27150598	     -2.70966221	      2.95645229	     19.28516093	     -5.30786026	     -9.84404656
      4.11500000	    -16.01436839	      3.63372315	     -2.39014544	     -0.81561087	     -0.01295375	     -0.36903683	     37.59345212	     -3.38377781	     -6.36188278	    -55.56941605	     -0.43840407	    -14.27735639	     17.62058479	     18.41091854	      5.17513574	     -5.81733505	    -17.90227380	      8.40222798	     -2.56551505	      2.87266338	     19.19715953	     -5.12886279	    -10.18971556
      4.12000000	    -16.08820229	      3.37137167	     -2.20564396	     -0.80968241	     -0.01273799	     -0.36946967	     38.05068860	     -3.23542929	     -6.84888254	    -54.35453483	     -0.16863269	    -14.09117017	     17.30014667	     17.74015569	      5.02592686	     -5.63046035	    -17.31318249	      8.50798126	     -2.46203021	      2.78572782	     19.18007273	     -4.91274142	    -10.47882180
      4.12500000	    -16.10323753	      3.13046060	     -1.99721464	     -0.80378011	     -0.01257631	     -0.36986862	     38.42899665	     -3.12585023	     -7.34916979	    -53.10677249	      0.10091615	    -13.91243108	     16.92326473	     16.99829299	      4.90235055	     -5.33796976	    -16.71022850	      8.65115860	     -2.31162054	      2.68326863	     19.09378052	     -4.74012000	    -10.78036007
      4.13000000	    -16.09787768	      2.90051397	     -1.85601122	     -0.79785070	     -0.01246538	     -0.37020610	     38.77337017	     -2.98832570	     -7.78878650	    -51.81540839	      0.34586274	    -13.65155079	     16.38685162	     16.23047554	      4.76847428	     -5.13898601	    -16.10241161	      8.77671252	     -2.22339518	      2.49254874	     18.99606423	     -4.54800330	    -10.99649262
      4.13500000	    -16.20473572	      2.68801376	     -1.67139136	     -0.79197519	     -0.01257628	     -0.37055448	     39.22362219	     -2.88825478	     -8.22309272	    -50.47823555	      0.60393716	    -13.34374247	     16.23669580	     15.62605626	      4.64160057	     -4.98579246	    -15.55694305	      8.91657487	     -2.04882834	      2.43255544	     19.01252827	     -4.39252068	    -11.28367484
      4.14000000	    -16.24193557	      2.47257175	     -1.50907808	     -0.78607246	     -0.01268185	     -0.37086365	     39.57035402	     -2.77327899	     -8.64126314	    -49.08117128	      0.82074186	    -13.04160248	     16.07693585	     14.93538048	      4.50609597	     -4.80488809	    -14.99728881	      9.05756680	     -1.90431289	      2.33867235	     18.95751325	     -4.22473164	    -11.53100283
      4.14500000	    -16.26480697	      2.27138787	     -1.36071577	     -0.78017101	     -0.01286606	     -0.37113714	     39.88631269	     -2.66325209	     -9.03788955	    -47.64773893	      1.02227807	    -12.70416367	     15.92995812	     14.23335091	      4.37539322	     -4.63612816	    -14.44551554	      9.21684277	     -1.74593733	      2.23590098	     18.88801390	     -4.07065296	    -11.75822357
      4.15000000	    -16.41729607	      2.14086067	     -1.31608514	     -0.77427859	     -0.01331974	     -0.37127170	     40.36456162	     -2.52956375	     -9.26816996	    -46.20824676	      1.18185992	    -12.36245991	     15.87095363	     13.67496253	      4.28529067	     -4.58092478	    -13.89691581	      9.36733224	     -1.65472632	      2.17802990	     18.97214395	     -3.94206546	    -11.84050441
      4.15500000	    -16.34874681	      1.90257018	     -1.10264887	     -0.76835247	     -0.01351339	     -0.37160794	     40.50232147	     -2.44379366	     -9.76388159	    -44.65498113	      1.34864010	    -11.94707618	     15.76496874	     12.90783003	      4.11972731	     -4.42140143	    -13.40531163	      9.54226728	     -1.42544735	      2.07631035	     18.79717055	     -3.77968026	    -12.18610314
      4.16000000	    -16.47499835	      1.76894863	     -1.05317172	     -0.76245531	     -0.01404973	     -0.37169187	     40.88864909	     -2.29913536	     -9.96874454	    -43.10407734	      1.46122826	    -11.54375718	     15.70931534	     12.35182650	      4.01607531	     -4.37863453	    -12.91538368	      9.68049378	     -1.31748596	      2.00940911	     18.84959310	     -3.65733520	    -12.25368408
      4.16500000	    -16.40656043	      1.55816827	     -0.88613833	     -0.75648867	     -0.01441441	     -0.37195082	     40.99291910	     -2.20089577	    -10.40581878	    -41.48543077	      1.57504294	    -11.09996495	     15.63439763	     11.59155742	      3.85692282	     -4.28547232	    -12.43978283	      9.88978709	     -1.06098782	      1.92183123	     18.68390601	     -3.50263072	    -12.53817619
      4.17000000	    -16.44930406	      1.40580240	     -0.80181883	     -0.75054628	     -0.01498789	     -0.37206263	     41.22300168	     -2.07190659	    -10.67999931	    -39.84701399	      1.64336902	    -10.66020017	     15.57580609	     10.96564422	      3.73416975	     -4.26650428	    -11.98944155	     10.06810988	     -0.88171811	      1.84749376	     18.64456765	     -3.37621479	    -12.67262321
      4.17500000	    -16.49492303	      1.25058108	     -0.71261585	     -0.74457832	     -0.01562681	     -0.37214942	     41.42781272	     -1.94577965	    -10.98436630	    -38.17150142	      1.68984866	    -10.19182401	     15.53114978	     10.35960281	      3.60262699	     -4.25523932	    -11.57251918	     10.25731011	     -0.68008113	      1.80185502	     18.61215287	     -3.25165102	    -12.82659556
      4.18000000	    -16.55096423	      1.10108915	     -0.63211985	     -0.73859780	     -0.01634220	     -0.37221160	     41.61954165	     -1.81032338	    -11.25880800	    -36.46169792	      1.71537039	     -9.71712213	     15.49221368	      9.78158644	      3.47219857	     -4.26115607	    -11.18780984	     10.45087540	     -0.48692720	      1.77598855	     18.59210669	     -3.12937084	    -12.96677347
      4.18500000	    -16.61168031	      0.95180895	     -0.55379591	     -0.73258516	     -0.01711910	     -0.37224380	     41.78962568	     -1.67095673	    -11.54221976	    -34.72093470	      1.71870767	     -9.22991113	     15.45695817	      9.22385484	      3.33672642	     -4.27903074	    -10.83507620	     10.64962201	     -0.28806360	      1.76949076	     18.57893593	     -3.00973393	    -13.11018558
      4.19000000	    -16.66208046	      0.79934125	     -0.46288401	     -0.72658909	     -0.01794662	     -0.37228221	     41.92419230	     -1.52862940	    -11.80362870	    -32.95342407	      1.71139646	     -8.73860072	     15.42467971	      8.68412707	      3.19720491	     -4.30779403	    -10.53190968	     10.86780365	     -0.08630962	      1.78207287	     18.55128905	     -2.88547771	    -13.26683454
      4.19500000	    -16.74108583	      0.65044693	     -0.38732125	     -0.72054050	     -0.01885892	     -0.37228139	     42.07429812	     -1.38414102	    -12.09877195	    -31.18133251	      1.67393937	     -8.23072511	     15.39757045	      8.18603438	      3.05539212	     -4.34685114	    -10.25653896	     11.08261019	      0.10065029	      1.80434297	     18.56215807	     -2.76043808	    -13.39806320
      4.20000000	    -16.82135622	      0.50090334	     -0.31028476	     -0.71446740	     -0.01982341	     -0.37224904	     42.20626584	     -1.23572048	    -12.40062854	    -29.40122623	      1.62618456	     -7.71550636	     15.37960365	      7.70953366	      2.90798740	     -4.38901601	    -10.02310299	     11.30607606	      0.28898819	      1.83669260	     18.57609453	     -2.64108253	    -13.54146981
      4.20500000	    -16.90774075	      0.34895282	     -0.23391259	     -0.70836683	     -0.02083878	     -0.37219352	     42.32918265	     -1.08425022	    -12.72453061	    -27.62375404	      1.55393497	     -7.18748490	     15.37858227	      7.25734548	      2.75406376	     -4.43328599	     -9.82608932	     11.53599878	      0.47885485	      1.87510034	     18.59800472	     -2.51881388	    -13.68120785
      4.21000000	    -17.00032334	      0.19061558	     -0.15258888	     -0.70224527	     -0.02190181	     -0.37213461	     42.44819859	     -0.93193989	    -13.07290361	    -25.86325861	      1.45485710	     -6.64338132	     15.40348639	      6.82652004	      2.59079757	     -4.48041664	     -9.65805429	     11.77416136	      0.67246736	      1.91763841	     18.62936522	     -2.38691610	    -13.81637538
      4.21500000	    -17.08139245	      0.02873696	     -0.06831795	     -0.69608329	     -0.02299125	     -0.37203642	     42.53925140	     -0.77402195	    -13.43558977	    -24.11862194	      1.37191180	     -6.08844489	     15.47554027	      6.40572774	      2.41602118	     -4.52818778	     -9.54111854	     12.02081453	      0.88746959	      1.96852558	     18.65036736	     -2.25909005	    -13.98037623
      4.22000000	    -17.23541330	     -0.10441243	     -0.03982753	     -0.68989481	     -0.02421197	     -0.37183382	     42.72692911	     -0.59991328	    -13.76379404	    -22.43967368	      1.24749504	     -5.54620660	     15.52366570	      6.06664146	      2.26334126	     -4.57587271	     -9.44182851	     12.24084850	      1.00585502	      2.00187544	     18.75619696	     -2.14150253	    -14.03130512
